<?xml version="1.0" encoding="utf-8"?>
<!-- Generator: Adobe Illustrator 14.0.0, SVG Export Plug-In . SVG Version: 6.00 Build 43363)  -->
<!DOCTYPE svg PUBLIC "-//W3C//DTD SVG 1.1//EN" "http://www.w3.org/Graphics/SVG/1.1/DTD/svg11.dtd">
<svg version="1.1" id="nasa" xmlns="http://www.w3.org/2000/svg" xmlns:xlink="http://www.w3.org/1999/xlink" x="0px" y="0px"
	 width="400px" height="300px" viewBox="0 0 400 300" enable-background="new 0 0 400 300" xml:space="preserve">
<path fill="#1A5DAD" d="M301.889,149.38c0,59.635-49.129,108.717-108.826,108.717c-59.696,0-108.826-49.084-108.826-108.717
	c0-59.638,47.98-108.715,108.826-108.715C251.607,40.665,301.889,89.745,301.889,149.38"/>
<path fill="#FFFFFF" d="M217.611,206.599c46.492,19.127,38.426-29.206,13.643-66.214c-14.047-20.966-32.365-38.434-43.92-46.864
	c-38.311-27.961-61.962-11.002-34.909,44.141c8.747,17.829,19.981,29.862,28.755,41.206c6.701,8.659,19.754,12.993,15.156,17.104
	c-5.181,4.633-17.728-15.804-17.728-15.804c-9.266-11.176-18.098-23.1-27.2-39.462C130.612,103.33,133.61,65.184,171.254,81.8
	c31.945,14.109,62.458,53.68,74.727,81.782c5.666,12.975,21.114,64.317-28.09,43.56"/>
<path fill="#EE293D" d="M73.03,181.606c20.454-13.62,39.846-22.415,72.847-33.314c46.374-15.319,81.277-25.617,124.1-47.143
	c19.168-9.633,52.428-31.236,64.323-50.018c-3.562,7.269-14.59,21.416-19.583,27.674c-58.104,72.753-181.871,68.628-240.87,103.555"
	/>
<path fill="#FFFFFF" d="M102.702,128.434c18.72,0.146,16.884-0.038,17.102,0.182c0.327,0,14.947,25.177,14.947,25.396
	c0,0.105-0.11-8.948-0.11-20.273c0-1.308-3.599-5.122-3.491-5.122c5.343,0,12.327,0.109,12.327,0.109
	c-2.617,3.052-3.139,2.802-3.161,4.688c-0.074,6.065-0.143,17.272,0,29.864c0.02,1.885,1.419,2.615,3.709,5.885h-17.13
	c-5.564-9.264-15.76-26.643-15.709-26.593c0.079,0.08-0.219,10.902,0.107,19.619c0.11,2.881,1.419,3.813,3.821,6.432
	c0,0,2.762-0.074-13.42,0.107c4.909-2.615,4.257-5.886,4.255-5.994c-0.176-12.045-0.037-22.344-0.037-28.993
	c0-1.09-0.074-0.981-3.455-5.122"/>
<path fill="#FFFFFF" d="M161.233,147.036c1.571-5.457,2.915-10.333,3.552-13.513c0.107-0.545-1.2-2.506-3.273-4.469l-0.147-0.304
	c9.996,0.033,20.438,0.086,20.438,0.086c2.728,6.648,8.946,25.285,13.637,36.729c1.241,3.024,3.383,3.596,3.383,3.596
	c-8.509-0.107-24.302-0.033-24.218-0.107c4.254-3.814,3.708-3.814,1.854-9.373h-13.309c-2.728,6.32,0.85,9.287,1.308,9.264
	c-3.029,0.156-13.309,0-13.309,0c5.564-3.924,5.235-5.121,5.235-5.121c1.529-5.438,3.3-11.396,4.85-16.789l5.46,0.001
	c-1.173,3.762-2.346,7.522-2.346,7.522h10.585l-5.893-15.042c0,0-1.173,3.761-2.347,7.52l-5.46-0.001"/>
<path fill="#FFFFFF" d="M252.662,147.581c1.568-5.456,2.913-10.333,3.549-13.515c0.107-0.542-1.201-2.504-3.271-4.468l-0.148-0.303
	c9.999,0.033,20.443,0.086,20.443,0.086c2.725,6.649,8.943,25.286,13.634,36.729c1.239,3.027,3.381,3.598,3.381,3.598
	c-8.505-0.109-24.298-0.033-24.217-0.109c4.256-3.813,3.711-3.813,1.854-9.371h-13.311c-2.729,6.32,0.848,9.287,1.306,9.266
	c-3.026,0.154-13.308,0-13.308,0c5.563-3.924,5.236-5.123,5.236-5.123C249.34,158.928,251.109,152.975,252.662,147.581h5.46
	c-1.177,3.762-2.345,7.523-2.345,7.523h10.58l-5.894-15.042c0,0-1.168,3.76-2.343,7.519H252.662"/>
<path fill="#FFFFFF" d="M235.45,138.647c-0.218-7.741,0-10.247,0-10.247c-3.384,2.726-1.677,2.378-10.146,0.981
	c-24.404-4.027-26.266,18.758-12.984,23.867c11.148,4.293,15.1,5.133,13.418,9.154c-0.545,1.312-10.689,6.105-21.161-3.596
	l0.216,13.516c1.311-1.348,4.911-3.813,4.911-3.813c0.106,0,11.352,4.953,21.489-0.22c15.604-7.955,7.815-20.833-8.834-25.939
	c-13.856-4.25-0.766-14.17,12.979-3.596"/>
<path fill="#FFFFFF" d="M194.595,50.538c0,0.487-0.397,0.888-0.886,0.888c-0.485,0-0.886-0.4-0.886-0.888
	c0-0.482,0.401-0.885,0.886-0.885C194.197,49.653,194.595,50.055,194.595,50.538"/>
<path fill="#FFFFFF" d="M200.741,63.959c0,0.598-0.495,1.089-1.091,1.089c-0.601,0-1.093-0.491-1.093-1.089
	c0-0.597,0.492-1.088,1.093-1.088C200.246,62.87,200.741,63.362,200.741,63.959"/>
<path fill="#FFFFFF" d="M216.689,85.892c0,0.597-0.49,1.09-1.092,1.09c-0.597,0-1.091-0.493-1.091-1.09
	c0-0.598,0.458-1.091,1.058-1.091C216.165,84.801,216.689,85.294,216.689,85.892"/>
<path fill="#FFFFFF" d="M191.051,71.52c0,0.486-0.399,0.885-0.886,0.885c-0.486,0-0.888-0.398-0.888-0.885
	c0-0.485,0.401-0.887,0.888-0.887C190.652,70.633,191.051,71.034,191.051,71.52"/>
<path fill="#FFFFFF" d="M200.604,76.562c0,0.483-0.399,0.885-0.886,0.885c-0.485,0-0.887-0.402-0.887-0.885
	c0-0.485,0.401-0.885,0.887-0.885C200.204,75.677,200.604,76.077,200.604,76.562"/>
<path fill="#FFFFFF" d="M188.191,62.459c0,0.598-0.493,1.089-1.091,1.089c-0.598,0-1.091-0.491-1.091-1.089s0.493-1.091,1.091-1.091
	C187.698,61.368,188.191,61.861,188.191,62.459"/>
<path fill="#FFFFFF" d="M173.738,71.247c0,0.486-0.399,0.887-0.887,0.887c-0.486,0-0.886-0.4-0.886-0.887
	c0-0.484,0.4-0.886,0.886-0.886C173.338,70.361,173.738,70.762,173.738,71.247"/>
<path fill="#FFFFFF" d="M176.322,73.017c0,0.488-0.4,0.888-0.888,0.888c-0.486,0-0.888-0.4-0.888-0.888
	c0-0.484,0.401-0.884,0.888-0.884C175.922,72.133,176.322,72.532,176.322,73.017"/>
<path fill="#FFFFFF" d="M178.915,74.789c0,0.488-0.399,0.887-0.886,0.887c-0.486,0-0.887-0.399-0.887-0.887
	c0-0.483,0.401-0.883,0.887-0.883C178.516,73.905,178.915,74.305,178.915,74.789"/>
<path fill="#FFFFFF" d="M174.965,78.195c0,0.487-0.403,0.887-0.887,0.887c-0.487,0-0.888-0.399-0.888-0.887
	c0-0.484,0.401-0.885,0.888-0.885C174.563,77.311,174.965,77.711,174.965,78.195"/>
<path fill="#FFFFFF" d="M154.371,92.636c0,0.485-0.401,0.885-0.888,0.885c-0.486,0-0.887-0.398-0.887-0.885s0.401-0.888,0.887-0.888
	S154.371,92.15,154.371,92.636"/>
<path fill="#FFFFFF" d="M158.188,97.27c0,0.485-0.401,0.885-0.887,0.885c-0.486,0-0.888-0.4-0.888-0.885
	c0-0.488,0.402-0.886,0.888-0.886C157.786,96.384,158.188,96.782,158.188,97.27"/>
<path fill="#FFFFFF" d="M155.153,172.064c0,0.486-0.4,0.885-0.886,0.885c-0.486,0-0.886-0.397-0.886-0.885
	c0-0.484,0.399-0.887,0.886-0.887C154.754,171.178,155.153,171.578,155.153,172.064"/>
<path fill="#FFFFFF" d="M155.699,192.698c0,0.6-0.493,1.09-1.091,1.09s-1.091-0.49-1.091-1.09c0-0.598,0.493-1.088,1.091-1.088
	S155.699,192.101,155.699,192.698"/>
<path fill="#FFFFFF" d="M143.968,203.267c0,0.483-0.4,0.885-0.885,0.885c-0.486,0-0.887-0.4-0.887-0.885
	c0-0.488,0.401-0.887,0.887-0.887C143.568,202.38,143.968,202.778,143.968,203.267"/>
<path fill="#FFFFFF" d="M129.923,207.548c0,0.6-0.496,1.09-1.092,1.09c-0.598,0-1.09-0.49-1.09-1.09c0-0.598,0.493-1.09,1.09-1.09
	C129.428,206.458,129.923,206.95,129.923,207.548"/>
<path fill="#FFFFFF" d="M127.059,198.015c0,0.598-0.492,1.09-1.089,1.09c-0.598,0-1.092-0.492-1.092-1.09
	c0-0.6,0.494-1.09,1.092-1.09C126.566,196.925,127.059,197.415,127.059,198.015"/>
<path fill="#FFFFFF" d="M125.424,204.077c0,0.488-0.401,0.887-0.887,0.887c-0.486,0-0.888-0.398-0.888-0.887
	c0-0.482,0.402-0.885,0.888-0.885C125.023,203.192,125.424,203.595,125.424,204.077"/>
<path fill="#FFFFFF" d="M114.921,199.04c0,0.484-0.4,0.885-0.885,0.885c-0.487,0-0.888-0.398-0.888-0.885
	c0-0.484,0.4-0.885,0.888-0.885C114.521,198.155,114.921,198.556,114.921,199.04"/>
<path fill="#FFFFFF" d="M151.606,216.067c0,0.486-0.366,0.887-0.851,0.887c-0.486,0-0.921-0.398-0.921-0.887
	c0-0.484,0.401-0.887,0.886-0.887C151.207,215.181,151.606,215.581,151.606,216.067"/>
<path fill="#FFFFFF" d="M162.654,207.965c0,0.599-0.458,1.091-1.058,1.091c-0.598,0-1.124-0.492-1.124-1.091
	c0-0.597,0.492-1.089,1.091-1.089C162.163,206.876,162.654,207.368,162.654,207.965"/>
<path fill="#FFFFFF" d="M163.919,218.383c0,0.487-0.436,0.89-0.92,0.89c-0.487,0-0.887-0.402-0.887-0.89
	c0-0.485,0.4-0.883,0.887-0.883C163.483,217.5,163.919,217.897,163.919,218.383"/>
<path fill="#FFFFFF" d="M209.324,208.435c0,0.485-0.4,0.887-0.885,0.887c-0.489,0-0.89-0.4-0.89-0.887s0.399-0.885,0.89-0.885
	C208.924,207.55,209.324,207.948,209.324,208.435"/>
<path fill="#FFFFFF" d="M188.191,215.929c0,0.486-0.399,0.885-0.887,0.885c-0.484,0-0.886-0.397-0.886-0.885
	c0-0.484,0.401-0.886,0.886-0.886C187.792,215.043,188.191,215.442,188.191,215.929"/>
<path fill="#FFFFFF" d="M245.058,226.698c0,0.484-0.4,0.885-0.886,0.885c-0.488,0-0.889-0.4-0.889-0.885
	c0-0.485,0.399-0.887,0.889-0.887C244.656,225.813,245.058,226.213,245.058,226.698"/>
<path fill="#FFFFFF" d="M249.691,184.8c0,0.598-0.492,1.092-1.093,1.092c-0.599,0-1.091-0.494-1.091-1.092s0.492-1.092,1.091-1.092
	C249.199,183.708,249.691,184.202,249.691,184.8"/>
<path fill="#FFFFFF" d="M240.97,190.726c0,0.484-0.399,0.885-0.889,0.885c-0.485,0-0.886-0.399-0.886-0.885
	c0-0.486,0.399-0.885,0.886-0.885C240.568,189.841,240.97,190.239,240.97,190.726"/>
<path fill="#FFFFFF" d="M249.563,192.433c0,0.598-0.492,1.09-1.092,1.09s-1.092-0.492-1.092-1.09c0-0.597,0.492-1.091,1.092-1.091
	S249.563,191.836,249.563,192.433"/>
<path fill="#FFFFFF" d="M240.97,202.989c0,0.484-0.399,0.885-0.889,0.885c-0.485,0-0.886-0.398-0.886-0.885s0.399-0.887,0.886-0.887
	C240.568,202.103,240.97,202.503,240.97,202.989"/>
<path fill="#FFFFFF" d="M263.191,178.875c0,0.485-0.4,0.886-0.887,0.886s-0.885-0.4-0.885-0.886c0-0.486,0.398-0.885,0.885-0.885
	S263.191,178.391,263.191,178.875"/>
<path fill="#FFFFFF" d="M265.343,184.255c0,0.6-0.455,1.092-1.055,1.092c-0.601,0-1.124-0.492-1.124-1.092
	c0-0.598,0.492-1.088,1.088-1.088C264.852,183.167,265.343,183.657,265.343,184.255"/>
<path fill="#FFFFFF" d="M280.652,190.661c0,0.597-0.487,1.088-1.09,1.088c-0.601,0-1.092-0.491-1.092-1.088
	c0-0.598,0.491-1.092,1.092-1.092C280.165,189.569,280.652,190.063,280.652,190.661"/>
<path fill="#FFFFFF" d="M265.104,202.04c0,0.484-0.404,0.885-0.89,0.885s-0.886-0.4-0.886-0.885c0-0.488,0.4-0.887,0.886-0.887
	C264.697,201.153,265.104,201.552,265.104,202.04"/>
<path fill="#FFFFFF" d="M274.922,192.774c0,0.485-0.398,0.885-0.885,0.885c-0.484,0-0.887-0.398-0.887-0.885
	c0-0.488,0.401-0.887,0.887-0.887C274.523,191.888,274.922,192.286,274.922,192.774"/>
<path fill="#FFFFFF" d="M273.113,207.077c0,0.486-0.4,0.886-0.885,0.886c-0.488,0-0.89-0.397-0.89-0.886
	c0-0.484,0.399-0.885,0.89-0.885C272.713,206.192,273.113,206.593,273.113,207.077"/>
<path fill="#FFFFFF" d="M277.275,183.306c0,0.748-0.616,1.359-1.364,1.359c-0.747,0-1.363-0.611-1.363-1.359
	s0.616-1.361,1.363-1.361C276.659,181.942,277.275,182.558,277.275,183.306"/>
<path fill="#FFFFFF" d="M275.909,179.151l-0.406,3.746l-3.718,0.408l3.746,0.407l0.412,3.886l0.41-3.886l3.682-0.478l-3.715-0.34
	L275.909,179.151"/>
<path fill="#FFFFFF" d="M267.724,207.004c0,0.748-0.614,1.362-1.362,1.362s-1.363-0.614-1.363-1.362c0-0.747,0.615-1.36,1.363-1.36
	C267.107,205.644,267.724,206.258,267.724,207.004"/>
<path fill="#FFFFFF" d="M266.367,202.851l-0.41,3.748l-3.715,0.408l3.748,0.41l0.41,3.881l0.41-3.881l3.681-0.479l-3.718-0.342
	L266.367,202.851"/>
<path fill="#FFFFFF" d="M165.995,94.473c0,0.748-0.615,1.362-1.363,1.362c-0.75,0-1.365-0.614-1.365-1.362s0.614-1.361,1.365-1.361
	C165.38,93.112,165.995,93.726,165.995,94.473"/>
<path fill="#FFFFFF" d="M164.629,90.318l-0.41,3.746l-3.718,0.409l3.751,0.407l0.41,3.884l0.408-3.884l3.683-0.475l-3.718-0.342
	L164.629,90.318"/>
<path fill="#FFFFFF" d="M216.727,61.506c0,0.748-0.617,1.364-1.365,1.364s-1.359-0.616-1.359-1.364c0-0.747,0.611-1.362,1.359-1.362
	C216.107,60.144,216.727,60.759,216.727,61.506"/>
<path fill="#FFFFFF" d="M215.359,57.348l-0.407,3.748l-3.718,0.409l3.752,0.41l0.408,3.883l0.408-3.883l3.682-0.479l-3.717-0.34
	L215.359,57.348"/>
<path fill="#FFFFFF" d="M155.05,228.812c0,0.748-0.616,1.361-1.363,1.361c-0.75,0-1.365-0.613-1.365-1.361
	c0-0.746,0.615-1.361,1.365-1.361C154.435,227.448,155.05,228.065,155.05,228.812"/>
<path fill="#FFFFFF" d="M153.719,224.651l-0.408,3.746l-3.716,0.41l3.75,0.406l0.409,3.885l0.409-3.885l3.682-0.477l-3.716-0.342
	L153.719,224.651"/>
<path fill="#EE293D" d="M334.291,51.131c-16.584,49.201-83.021,87.192-138.948,123.461c-33.74,21.888-67.237,47.078-90.298,68.515
	c-6.079,5.653,1.239-2.113-1.09,0.272c32.182-37.056,69.203-59.127,89.66-73.02c34.598-23.504,54.275-29.428,113.966-84.41"/>
<path fill="#EE293D" d="M86.863,173.025c-5.956,2.912-11.292,5.791-15.818,8.602l2.754,1.003c3.959-2.438,8.712-4.979,13.719-7.222"
	/>
<path fill="#EE293D" d="M118.307,228.081c-5.444,4.754-11.072,9.826-16.716,15.143l-0.249,3.756
	c5.167-5.322,11.516-11.072,18.843-17.172"/>
<path fill="#FFFFFF" d="M217.611,206.599c46.492,19.127,38.426-29.206,13.643-66.214c-14.047-20.966-31.368-37.598-43.92-46.864
	c-14.655-10.821-16.086-11.718-16.086-11.718c32.729,15.533,62.458,53.68,74.727,81.782c5.666,12.976,21.115,64.316-28.09,43.561"/>
</svg>
